<?xml version="1.0" standalone="no"?>
<!DOCTYPE svg PUBLIC "-//W3C//DTD SVG 20010904//EN"
 "http://www.w3.org/TR/2001/REC-SVG-20010904/DTD/svg10.dtd">
<svg version="1.0" xmlns="http://www.w3.org/2000/svg"
 width="1280.000000pt" height="1143.000000pt" viewBox="0 0 1280.000000 1143.000000"
 preserveAspectRatio="xMidYMid meet">
<metadata>
Created by potrace 1.15, written by Peter Selinger 2001-2017
</metadata>
<g transform="translate(0.000000,1143.000000) scale(0.100000,-0.100000)"
fill="#00bcd4" stroke="none">
<path d="M10986 11394 c-6 -29 -17 -42 -67 -74 -33 -21 -84 -46 -112 -56 -31
-10 -61 -28 -75 -45 -14 -17 -33 -29 -47 -29 -41 0 -265 -127 -358 -203 -58
-48 -86 -94 -126 -212 -18 -49 -41 -103 -52 -118 -14 -19 -24 -60 -35 -138
-13 -103 -19 -119 -82 -247 -92 -185 -168 -312 -259 -433 l-76 -102 -81 6
c-145 9 -235 53 -421 207 -60 50 -121 93 -135 96 -14 4 -74 22 -135 42 l-110
36 -230 3 c-251 3 -309 13 -365 60 -30 25 -32 29 -25 78 5 42 3 54 -9 58 -25
10 -74 -40 -118 -122 -43 -77 -87 -131 -108 -131 -6 0 -9 4 -6 8 3 5 -8 35
-24 68 -19 37 -30 75 -30 102 0 46 -28 86 -54 76 -16 -6 -56 -102 -56 -133 0
-10 -45 -85 -99 -167 -55 -82 -179 -288 -276 -459 -190 -332 -285 -483 -333
-529 l-30 -28 -31 33 c-17 19 -65 84 -108 144 -137 196 -171 234 -319 351 -78
62 -161 135 -185 163 -23 29 -54 54 -68 58 -14 3 -57 21 -96 40 -38 18 -81 33
-95 33 -15 0 -43 14 -66 34 -30 26 -70 43 -174 74 -531 160 -1012 243 -1586
273 -199 11 -271 10 -530 -4 -164 -9 -357 -24 -429 -32 -71 -8 -240 -26 -375
-40 -350 -36 -491 -62 -751 -135 -259 -74 -431 -149 -574 -252 -371 -269 -663
-569 -830 -853 -65 -109 -228 -445 -256 -525 -39 -110 -63 -284 -63 -460 -1
-196 17 -307 76 -485 45 -134 43 -124 33 -182 l-7 -41 45 -20 c38 -17 47 -27
62 -68 26 -71 81 -196 131 -295 23 -47 59 -132 79 -189 19 -57 45 -118 56
-136 11 -18 30 -63 43 -101 13 -37 53 -142 89 -233 155 -392 182 -581 197
-1370 5 -278 15 -649 21 -824 19 -516 1 -728 -79 -909 -24 -56 -25 -59 -9 -93
27 -56 22 -76 -23 -97 -58 -27 -93 -77 -98 -140 -5 -64 16 -96 89 -132 44 -23
69 -49 69 -73 0 -10 -16 -13 -180 -37 -59 -9 -156 -33 -221 -55 -142 -49 -184
-50 -344 -10 -154 39 -155 39 -155 -5 0 -42 1 -42 -138 -19 -106 17 -174 14
-221 -11 -35 -18 -37 -23 -17 -51 12 -16 31 -20 143 -25 70 -4 183 -12 250
-19 126 -13 120 -13 640 20 233 15 605 -10 673 -45 16 -8 55 -15 89 -15 50 0
69 -5 108 -30 57 -37 116 -39 203 -10 51 17 90 21 253 22 l192 2 137 -52 c114
-43 149 -52 201 -52 53 0 99 -12 268 -70 175 -60 213 -70 273 -70 57 0 77 -5
114 -26 34 -20 62 -27 126 -31 79 -5 241 -47 752 -194 95 -27 192 -49 216 -49
79 0 128 -28 128 -73 0 -11 -31 -15 -152 -20 -163 -7 -270 -21 -493 -63 -159
-30 -191 -40 -199 -60 -5 -13 46 -15 397 -12 l402 3 65 -27 c36 -14 124 -38
196 -52 73 -14 183 -44 245 -67 140 -51 188 -52 312 -11 78 26 94 28 142 19
48 -8 65 -6 138 18 75 25 100 28 277 32 l195 5 120 40 c116 39 123 40 200 32
125 -13 156 -9 268 30 58 20 122 36 143 36 23 0 41 6 49 17 7 9 30 22 51 28
49 14 54 44 9 57 -36 10 -79 4 -204 -28 -129 -33 -159 -32 -192 8 l-26 32 -51
-22 c-45 -20 -70 -22 -268 -25 -121 -1 -226 -6 -235 -10 -13 -7 -17 -1 -22 30
-2 21 -6 44 -8 52 -3 11 24 22 101 44 104 28 222 61 875 244 295 82 726 193
752 193 5 0 6 -33 2 -72 -11 -108 -10 -274 2 -348 5 -36 21 -97 35 -136 38
-110 192 -424 208 -424 8 0 28 -11 44 -25 28 -23 31 -32 37 -111 4 -47 5 -87
2 -90 -3 -3 -19 2 -36 10 -38 20 -65 20 -81 1 -10 -13 -10 -19 5 -35 15 -17
16 -20 3 -20 -9 0 -29 7 -44 15 -40 20 -59 19 -107 -8 -23 -13 -84 -39 -135
-58 -99 -36 -153 -72 -178 -121 l-16 -31 29 6 c15 2 66 13 113 23 64 14 127
18 255 18 162 0 174 -1 245 -28 65 -24 88 -28 168 -26 82 2 96 -1 116 -19 60
-56 147 -64 319 -27 203 44 271 43 328 -3 28 -23 36 -112 17 -184 l-13 -49
-140 -5 c-77 -3 -170 -6 -208 -6 -64 0 -68 -1 -73 -26 -10 -46 -13 -51 -33
-51 -11 0 -57 -14 -102 -30 -45 -17 -116 -36 -157 -42 -59 -8 -82 -17 -106
-39 l-31 -28 30 -2 c61 -3 122 3 200 21 131 29 168 32 190 16 26 -20 71 -20
125 -1 58 21 80 19 80 -4 0 -11 5 -23 10 -26 9 -5 144 21 213 41 10 3 17 0 17
-9 0 -23 34 -47 68 -47 42 0 82 -16 82 -34 0 -8 20 -28 44 -44 37 -25 51 -29
88 -25 35 4 60 -1 117 -26 41 -19 80 -30 91 -26 10 3 24 23 32 44 12 37 22 43
180 125 205 105 296 137 398 140 56 2 86 8 119 25 32 17 78 26 175 37 207 22
276 44 276 89 0 35 -26 44 -113 42 -45 -1 -80 3 -87 9 -8 8 -39 0 -116 -33
-64 -27 -112 -42 -124 -38 -35 11 -108 91 -119 131 -22 78 -26 73 157 161 193
94 295 138 592 258 118 47 260 107 315 133 119 55 169 61 314 38 157 -25 207
-22 313 19 129 50 218 71 471 110 315 50 331 53 316 72 -25 29 -94 55 -208 79
-63 13 -117 24 -118 24 -2 0 -3 36 -3 80 0 59 3 80 13 80 7 0 26 13 41 29 23
24 35 55 58 152 17 73 36 127 45 134 14 11 15 20 5 69 -10 48 -8 70 9 154 19
88 20 120 16 337 -9 390 -59 556 -201 667 -126 99 -249 156 -354 165 -58 4
-71 2 -93 -16 -15 -11 -29 -29 -32 -40 -4 -17 6 -22 86 -40 268 -63 415 -216
458 -478 14 -86 13 -460 -1 -600 -23 -222 -63 -382 -116 -462 -19 -30 -34 -41
-62 -45 -83 -15 -203 -63 -375 -150 -158 -79 -321 -146 -332 -134 -2 2 -8 64
-14 139 -6 75 -17 154 -25 175 -12 35 -14 37 -24 19 -21 -41 -23 -93 -7 -186
18 -104 21 -187 8 -199 -15 -15 -200 -90 -222 -90 -20 0 -21 5 -21 86 0 89
-10 124 -36 124 -30 0 -38 -45 -26 -139 7 -49 9 -96 6 -105 -7 -17 -72 -50
-122 -60 -38 -9 -41 2 -43 169 -1 72 -4 144 -8 160 l-7 30 -18 -28 c-26 -39
-30 -96 -12 -225 8 -63 12 -120 10 -127 -5 -12 -95 -55 -116 -55 -5 0 -9 39
-9 88 2 150 -15 319 -33 347 -17 26 -42 35 -33 11 3 -7 8 -119 12 -247 l7
-234 -62 -27 c-34 -16 -65 -26 -69 -23 -5 2 -11 84 -15 181 -6 176 -28 399
-46 478 -16 67 -13 92 13 103 22 10 23 14 16 84 -4 41 -18 101 -31 134 -22 55
-28 61 -67 74 -37 12 -45 11 -57 -1 -13 -13 -9 -20 29 -59 51 -50 73 -108 63
-163 -5 -27 -12 -36 -27 -36 -38 0 -66 42 -79 121 -15 87 -32 125 -61 134 -44
14 -43 -28 5 -144 20 -49 26 -82 26 -136 0 -79 9 -95 53 -95 l29 0 -7 50 c-5
40 -4 50 7 50 38 0 88 -405 88 -711 l0 -96 -68 -32 c-38 -17 -78 -31 -90 -31
-26 0 -25 -7 -23 230 2 169 -7 246 -35 306 -40 85 -50 4 -28 -240 13 -154 14
-208 6 -252 -14 -69 -42 -109 -88 -124 -58 -20 -64 -12 -64 87 -1 172 -17 316
-41 368 l-23 49 -8 -29 c-7 -27 2 -151 22 -320 6 -44 10 -109 10 -146 l0 -66
-47 -26 c-27 -14 -61 -27 -78 -29 l-30 -3 0 221 c0 232 -4 254 -46 254 -17 0
-18 -7 -11 -117 4 -65 7 -180 7 -256 l0 -139 -55 -33 c-30 -19 -72 -37 -94
-41 -35 -6 -37 -5 -28 12 5 11 12 96 15 191 5 138 3 172 -7 176 -10 4 -12 18
-9 51 5 37 3 46 -9 46 -37 0 -41 -24 -32 -188 5 -86 7 -181 6 -211 -4 -85 -48
-158 -73 -120 -5 8 -9 66 -9 129 0 63 -7 142 -14 175 -13 59 -47 138 -65 149
-5 3 -7 -40 -5 -104 2 -84 7 -115 21 -137 13 -20 19 -52 21 -120 2 -52 0 -93
-5 -93 -19 0 -65 59 -84 110 -11 29 -22 89 -25 134 -4 46 -14 98 -25 121 -10
22 -25 94 -34 160 -17 119 -33 176 -54 189 -18 12 -13 -132 8 -241 10 -54 31
-138 45 -188 26 -89 33 -155 18 -155 -10 0 -55 130 -76 220 -14 60 -67 366
-81 470 -3 25 -15 56 -26 70 l-20 25 4 -95 c3 -52 23 -188 46 -303 23 -114 41
-210 41 -214 0 -13 -62 52 -77 81 -32 61 -55 147 -83 306 -43 249 -76 362 -95
329 -17 -27 -7 -137 24 -267 18 -74 30 -139 28 -145 -6 -16 -72 128 -103 222
-17 52 -26 107 -30 190 -7 135 -16 180 -45 213 l-20 23 5 -140 c4 -117 43
-402 81 -595 5 -23 3 -23 -25 10 -91 104 -150 334 -150 587 0 94 -8 112 -36
82 -26 -29 -30 -153 -9 -289 30 -194 30 -187 9 -168 -9 10 -31 43 -48 75 -22
41 -41 62 -64 72 -25 12 -34 24 -42 55 -16 64 -44 129 -57 134 -30 9 -12 -90
53 -288 3 -9 -3 -7 -17 7 -12 12 -63 104 -113 204 -50 101 -97 185 -103 187
-9 2 -13 -8 -13 -32 0 -34 -2 -36 -34 -36 -42 0 -62 19 -75 68 -5 20 -18 66
-28 102 -24 88 -24 339 1 420 28 89 30 106 12 113 -24 9 -46 -2 -51 -27 -11
-54 -35 -261 -41 -349 -5 -73 -10 -94 -17 -81 -9 15 -13 14 -37 -16 l-27 -33
-18 134 c-28 210 -15 273 79 386 61 74 74 103 46 103 -33 0 -70 -19 -121 -62
-27 -23 -52 -39 -54 -36 -11 10 109 140 197 213 144 122 294 216 436 274 78
33 91 26 53 -27 -44 -63 -45 -62 125 -169 16 -10 12 -12 -29 -12 -100 -2 -236
-68 -313 -153 l-37 -41 6 -78 c6 -90 38 -159 98 -214 56 -51 101 -60 284 -59
123 1 210 8 380 33 248 36 351 39 690 20 243 -14 566 -6 675 15 41 8 131 27
200 42 97 21 152 27 245 27 117 0 122 -1 193 -36 62 -30 78 -34 105 -26 54 15
84 10 138 -23 67 -42 113 -43 153 -4 26 27 28 34 23 85 -8 88 -27 139 -74 191
-38 43 -86 74 -146 94 -16 5 -9 17 48 79 77 82 118 153 96 166 -9 6 -11 18 -6
40 5 26 1 38 -31 76 -20 25 -35 48 -32 50 2 3 97 -5 211 -16 113 -12 212 -19
220 -16 23 9 40 98 28 144 -17 62 -56 91 -181 132 -100 33 -99 30 -26 103 122
122 111 220 -40 356 l-66 60 -85 -19 c-381 -83 -701 -240 -991 -484 l-103 -86
-44 28 c-35 22 -76 71 -63 77 2 0 29 14 62 30 150 76 242 243 290 531 41 241
96 753 112 1045 l6 106 95 48 c121 62 263 155 469 309 l162 122 85 180 c90
189 120 271 136 370 44 265 8 563 -94 771 -193 398 -617 638 -1315 744 -374
57 -728 65 -1957 46 -310 -5 -563 -6 -563 -2 0 3 19 18 43 32 103 65 313 231
443 351 92 85 213 181 345 275 260 185 332 229 449 269 67 23 109 45 145 75
117 99 159 127 320 212 304 160 705 415 705 448 0 21 50 74 89 93 50 26 111
94 211 235 139 195 217 260 342 286 l57 11 -29 47 c-16 26 -70 99 -119 162
-50 63 -100 133 -112 155 l-22 40 50 105 c68 144 133 246 328 514 152 211 170
231 215 252 40 18 50 28 50 47 0 38 -22 51 -65 37 -64 -21 -80 2 -50 73 8 20
15 43 15 52 0 28 -61 16 -171 -35 -64 -30 -122 -50 -142 -50 l-35 0 5 98 c5
84 3 100 -11 115 -29 29 -53 21 -60 -19z m0 -181 c20 -70 24 -66 -134 -124
-189 -68 -261 -100 -276 -121 -8 -11 -47 -37 -87 -57 -63 -31 -77 -43 -101
-86 -51 -92 -71 -155 -48 -155 17 0 79 67 115 125 24 39 48 58 125 103 120 69
166 89 315 142 66 23 176 68 245 100 69 32 142 62 163 66 l39 7 -16 -30 c-38
-75 -116 -115 -310 -159 -61 -14 -138 -39 -171 -56 -33 -16 -104 -49 -157 -73
-115 -51 -177 -93 -214 -141 -26 -34 -27 -36 -14 -92 17 -76 26 -93 115 -202
42 -51 82 -108 90 -126 24 -58 197 -306 261 -374 34 -36 67 -75 73 -88 15 -28
8 -52 -14 -52 -59 0 -181 -116 -284 -270 -34 -51 -79 -105 -99 -120 -20 -15
-90 -84 -155 -153 -117 -125 -119 -127 -249 -193 -72 -36 -149 -83 -172 -103
-25 -23 -79 -52 -136 -76 -198 -80 -287 -132 -431 -251 -106 -87 -135 -103
-473 -263 -132 -62 -231 -133 -400 -285 -71 -64 -141 -119 -155 -123 -36 -8
-55 -26 -117 -110 -46 -61 -69 -81 -166 -141 -83 -52 -136 -94 -198 -159 -54
-55 -109 -101 -149 -123 -87 -49 -192 -118 -286 -190 -119 -92 -277 -159 -372
-160 -29 0 -29 8 -1 68 30 64 103 134 228 219 58 40 121 88 139 107 34 35 35
36 10 36 -82 0 -342 -191 -415 -306 -44 -68 -58 -131 -38 -161 22 -34 58 -38
138 -15 39 12 105 31 146 42 124 35 237 96 305 166 34 33 70 66 81 72 30 16
168 48 260 61 68 10 497 30 654 31 l45 0 -55 -37 c-149 -99 -387 -332 -449
-439 -19 -32 -45 -75 -57 -94 -40 -61 -82 -163 -125 -306 -24 -77 -53 -155
-65 -174 -15 -23 -25 -59 -30 -105 -4 -38 -15 -86 -25 -105 -14 -28 -19 -71
-25 -206 l-7 -170 -46 45 c-53 52 -149 102 -230 121 -36 9 -93 11 -171 7 -64
-3 -121 -2 -126 2 -5 3 -22 23 -37 44 -37 50 -72 50 -127 1 -24 -22 -46 -34
-55 -30 -23 9 20 73 74 110 25 17 74 59 107 93 34 35 65 63 70 63 13 1 105 69
157 117 53 49 54 42 -14 198 -41 95 -43 105 -44 200 -1 55 -4 107 -9 116 -5
13 2 20 31 32 48 19 66 39 61 68 -5 36 -24 33 -70 -9 -29 -27 -60 -44 -96 -53
-59 -14 -102 -47 -102 -77 0 -29 9 -32 52 -15 21 8 41 14 43 12 2 -2 0 -24 -5
-49 -12 -63 2 -124 55 -238 25 -55 45 -106 45 -115 0 -9 -26 -33 -57 -53 -32
-20 -80 -57 -108 -82 -27 -25 -151 -135 -275 -246 -348 -311 -525 -495 -670
-695 l-54 -74 -23 29 c-14 16 -47 64 -74 106 -28 42 -68 93 -89 112 -46 41
-40 49 42 61 66 10 78 22 87 88 4 32 12 61 17 66 5 4 36 14 69 21 33 7 68 20
79 29 29 26 57 89 63 145 11 104 -45 163 -283 302 -74 42 -132 79 -130 81 2 3
57 11 121 18 141 17 200 35 251 79 36 31 39 38 41 92 1 33 4 68 5 78 5 30 -83
90 -171 119 -89 30 -203 47 -307 47 -44 0 -74 4 -74 10 0 14 145 231 232 349
40 53 120 146 179 206 78 80 164 189 317 402 236 326 373 525 452 655 28 47
69 100 90 117 68 54 484 580 530 671 16 30 68 100 116 155 93 107 157 198 175
249 6 18 24 39 39 48 15 8 49 50 76 92 55 85 74 95 214 117 171 26 477 -18
542 -79 11 -9 29 -26 41 -38 51 -47 291 -118 508 -149 191 -27 466 -16 614 24
22 6 72 29 109 52 124 75 310 131 561 169 77 12 154 25 170 29 l30 7 -32 17
c-18 10 -55 17 -84 17 -61 0 -257 -38 -382 -75 -73 -21 -95 -24 -125 -15 -54
15 -107 12 -202 -11 -147 -34 -249 -53 -255 -47 -11 10 20 59 94 151 71 89
112 157 125 210 3 15 23 49 43 75 65 85 92 157 168 460 l55 217 50 47 c69 64
185 139 385 248 94 51 186 103 205 116 19 13 38 23 42 23 4 1 15 -25 24 -56z
m364 -160 c0 -9 -42 -59 -93 -112 -149 -155 -291 -357 -403 -574 -21 -43 -41
-77 -44 -77 -3 0 -14 15 -25 33 -10 17 -74 106 -142 196 -142 187 -140 173
-40 252 75 60 204 118 427 193 107 35 215 74 240 85 55 25 80 26 80 4z m-3460
-987 l30 -86 -101 -152 c-146 -219 -213 -313 -488 -683 -337 -454 -434 -590
-579 -810 -69 -104 -130 -194 -135 -200 -20 -22 106 219 173 331 40 65 170
263 290 439 227 334 268 402 420 679 50 93 134 237 185 321 52 84 108 181 125
216 37 72 35 74 80 -55z m255 94 c11 -18 101 -59 177 -80 103 -29 226 -35 313
-17 45 9 78 11 93 6 13 -5 75 -18 139 -29 63 -11 132 -29 153 -40 20 -10 77
-53 126 -95 101 -87 269 -201 329 -224 30 -12 81 -16 205 -16 159 0 220 8 410
51 25 5 24 5 -5 -20 -74 -64 -243 -99 -470 -100 -228 0 -324 24 -655 166 -296
128 -313 132 -530 133 -168 0 -190 -2 -245 -23 -72 -27 -83 -37 -182 -174 -43
-60 -137 -188 -209 -285 -72 -98 -179 -248 -237 -333 -59 -85 -152 -204 -208
-265 -118 -129 -215 -256 -404 -530 -317 -458 -604 -832 -870 -1130 -79 -88
-107 -129 -141 -201 -52 -112 -82 -148 -139 -169 -46 -18 -65 -14 -65 14 0 24
134 219 287 417 71 93 170 230 220 304 50 74 130 180 177 235 79 90 195 257
390 561 38 59 104 153 146 208 42 56 94 133 115 171 24 42 66 96 107 135 50
49 76 84 104 142 29 62 50 90 100 133 41 37 81 85 113 139 28 46 93 141 144
212 51 71 122 172 157 224 35 52 109 158 165 235 56 77 117 166 135 198 35 58
44 65 55 47z m-3453 -75 c200 -19 310 -34 637 -87 l264 -43 33 -50 c72 -108
100 -243 90 -435 -8 -171 -53 -358 -125 -523 -12 -27 -19 -53 -15 -58 3 -5 19
-9 36 -9 29 0 30 -1 15 -18 -23 -25 -22 -62 1 -62 32 0 60 29 77 80 9 27 21
52 26 55 5 4 6 -2 2 -11 -9 -24 24 -46 48 -33 16 8 19 6 19 -13 0 -13 -8 -35
-18 -49 -72 -107 -81 -124 -73 -132 5 -5 19 -7 32 -5 18 2 31 18 54 65 17 34
33 62 38 62 4 1 7 -15 7 -34 0 -19 4 -35 9 -35 18 0 62 43 85 83 47 81 168
382 192 476 26 101 33 240 19 355 -7 53 -6 56 14 56 28 0 73 -23 136 -70 27
-21 68 -47 90 -58 44 -22 340 -309 423 -410 57 -69 139 -188 166 -239 l16 -32
-91 -158 c-276 -477 -440 -736 -609 -961 -63 -85 -95 -120 -103 -114 -7 5 -39
30 -72 57 -98 78 -143 95 -260 95 -108 0 -161 10 -195 38 l-22 18 68 40 c86
49 183 144 214 209 29 59 37 151 20 214 -8 31 -29 62 -67 103 l-56 58 -66 0
c-170 0 -303 -71 -404 -216 l-51 -74 -52 6 c-67 8 -113 -7 -180 -62 -45 -37
-57 -42 -77 -35 -81 31 -253 21 -362 -21 -68 -26 -151 -98 -176 -153 -40 -88
-17 -189 57 -255 69 -60 116 -75 239 -75 105 0 113 2 165 31 54 30 102 85 115
132 10 34 -24 29 -81 -13 -95 -68 -121 -78 -193 -73 -176 13 -272 119 -212
235 46 92 155 146 291 147 74 0 92 -3 140 -28 l55 -28 55 61 c49 54 90 81 122
81 7 0 8 -14 4 -39 l-6 -39 73 -42 c189 -112 329 -236 377 -336 36 -74 34
-161 -5 -239 l-30 -60 -141 -3 -142 -3 -95 93 -95 93 -4 82 c-4 99 -18 120
-47 72 -36 -59 -42 -247 -10 -314 15 -31 13 -30 147 -51 66 -10 30 -79 -92
-172 -34 -25 -102 -86 -153 -134 -104 -99 -153 -127 -228 -135 -87 -9 -136 4
-227 59 -45 28 -184 105 -308 171 -245 131 -387 216 -483 289 -34 26 -65 47
-69 48 -4 0 -44 -46 -90 -102 -121 -151 -172 -198 -213 -198 -18 0 -69 -7
-112 -15 -43 -8 -83 -15 -90 -15 -19 0 -252 357 -310 476 -36 75 -66 123 -87
139 -58 46 -65 54 -77 97 -15 57 -7 119 27 196 l27 62 46 0 c25 0 115 5 198
12 84 6 156 9 159 5 4 -4 11 -55 16 -114 22 -265 110 -474 222 -527 48 -23
143 -21 183 4 48 29 65 61 61 117 -4 64 -27 69 -64 13 -36 -54 -61 -59 -129
-25 -93 45 -160 149 -191 297 -19 85 -15 339 5 376 28 53 137 70 200 31 38
-23 70 -58 71 -76 0 -16 42 -17 58 -1 18 18 15 39 -13 93 -28 57 -23 65 43 65
30 0 42 4 42 15 0 22 -33 35 -72 28 -20 -3 -44 -1 -54 5 -17 10 -17 11 9 21
16 6 50 11 76 11 46 0 71 12 71 35 0 7 -23 11 -62 11 -104 0 -187 57 -230 161
-19 47 -25 54 -47 51 -17 -2 -27 -11 -31 -28 -6 -24 -10 -25 -82 -28 l-76 -3
-13 88 c-19 127 -16 295 5 368 23 78 78 154 111 155 6 0 19 -55 29 -122 26
-173 25 -171 50 -164 66 19 61 21 79 -43 22 -78 22 -79 -10 -83 -25 -3 -28 -7
-25 -37 8 -98 96 -204 194 -234 75 -22 138 -30 138 -16 0 28 -25 50 -79 70
-58 20 -101 50 -101 69 0 22 25 19 80 -9 74 -39 100 -40 100 -6 0 27 -27 49
-73 60 -35 9 -54 34 -112 148 -26 50 -64 119 -83 151 -28 47 -36 71 -37 115
-1 31 -12 86 -24 123 -12 37 -20 72 -17 77 9 15 157 61 244 76 93 17 213 19
280 4 50 -10 153 -65 159 -84 1 -5 -44 -34 -101 -63 -124 -63 -217 -132 -270
-202 -32 -42 -37 -53 -25 -61 33 -21 61 -8 132 59 85 80 136 116 237 168 62
31 86 38 137 38 34 1 65 4 69 9 15 14 22 6 34 -40 19 -76 31 -103 51 -113 30
-16 49 -12 49 12 0 20 -49 219 -56 227 -1 1 -13 -4 -26 -13 -24 -17 -158 -23
-158 -7 0 4 5 21 10 38 16 45 56 63 144 63 l76 0 -7 33 c-31 167 -113 345
-215 474 l-70 86 239 -6 c131 -4 309 -13 395 -22z m-1158 -68 c123 -46 206
-117 261 -225 27 -52 55 -151 55 -194 l0 -28 -57 7 c-95 13 -253 7 -322 -11
-185 -50 -351 -178 -428 -330 -14 -28 -27 -53 -29 -55 -5 -6 -234 133 -314
191 -69 50 -91 59 -240 102 -319 91 -582 130 -735 109 -44 -7 -81 -10 -83 -8
-16 16 95 73 333 170 349 143 602 212 975 265 262 37 284 39 400 36 93 -3 128
-9 184 -29z m516 -171 c0 -8 -4 -18 -10 -21 -5 -3 -10 -4 -10 -1 0 2 -3 11 -6
20 -4 11 -1 16 10 16 9 0 16 -6 16 -14z m-2210 -787 c160 -19 247 -47 306 -98
16 -15 88 -49 160 -75 196 -74 222 -89 230 -132 10 -55 -3 -204 -30 -344 -31
-158 -39 -251 -28 -316 7 -44 6 -56 -10 -75 -25 -33 -48 -114 -48 -171 0 -26
-4 -48 -9 -48 -4 0 -80 23 -167 51 -285 91 -336 101 -544 106 -159 4 -203 2
-313 -17 -167 -28 -226 -48 -384 -131 -72 -38 -134 -69 -138 -69 -17 0 11 60
66 145 32 51 59 97 59 104 0 8 -11 7 -37 -4 -73 -31 -96 -66 -138 -220 -34
-120 -65 -185 -102 -215 l-28 -22 -27 139 c-31 156 -43 307 -31 373 8 44 9 45
47 45 38 0 39 2 56 50 65 189 182 329 358 427 39 22 72 43 72 48 0 11 -26 20
-58 20 -78 0 -277 -177 -349 -309 -39 -70 -42 -72 -53 -51 -16 30 -6 72 29
124 17 25 39 78 51 127 13 50 33 101 51 126 16 23 29 53 29 66 0 40 17 75 39
82 14 4 21 15 21 32 0 38 74 104 162 147 186 88 465 120 758 85z m1190 -345
c0 -40 -11 -44 -108 -44 -72 0 -124 -8 -164 -25 -13 -5 -20 0 -29 21 -11 28
-29 146 -24 152 2 2 54 16 116 31 63 16 130 35 149 43 l35 15 12 -81 c7 -45
12 -95 13 -112z m396 -180 c39 -19 43 -31 12 -36 -14 -2 -24 -12 -28 -28 -5
-21 -19 -29 -80 -50 -94 -32 -96 -33 -119 -78 -17 -33 -19 -34 -25 -15 -4 12
0 49 9 83 9 34 13 74 10 89 -6 27 -4 28 57 38 95 15 127 15 164 -3z m-362 -31
c9 -41 26 -165 26 -188 0 -18 -7 -20 -68 -22 -37 0 -107 -8 -156 -17 -49 -9
-90 -16 -92 -16 -2 0 -4 20 -4 45 0 49 8 54 50 30 14 -8 35 -14 48 -15 41 0
26 39 -38 102 -42 40 -60 65 -60 83 l0 25 144 0 144 0 6 -27z m2756 -109 c40
-46 50 -73 50 -137 0 -96 -68 -199 -163 -249 -30 -16 -60 -22 -107 -23 -57 0
-76 5 -140 37 -116 58 -116 59 -102 115 7 26 24 69 38 96 66 133 168 195 320
196 70 1 73 0 104 -35z m-3157 -586 c15 -35 40 -100 56 -145 44 -119 69 -164
165 -295 100 -137 136 -202 119 -219 -20 -20 -105 -22 -171 -5 -173 44 -270
152 -291 322 -9 73 1 192 20 253 18 56 61 151 69 151 4 0 19 -28 33 -62z
m-811 -348 c260 -25 495 -105 650 -220 l57 -43 -5 -56 c-4 -37 0 -78 11 -121
23 -88 23 -136 1 -201 l-19 -56 26 -74 c14 -41 40 -114 57 -162 17 -49 29 -94
27 -101 -3 -8 -36 -15 -89 -19 -45 -4 -119 -16 -163 -26 -83 -20 -97 -17 -88
20 7 26 -32 39 -123 39 l-75 0 3 37 c3 35 1 38 -35 50 -98 33 -268 38 -370 12
-43 -11 -102 -59 -110 -90 -5 -20 -3 -21 41 -16 26 3 90 13 142 22 97 18 223
16 243 -4 5 -5 -27 -17 -87 -31 -138 -31 -192 -75 -184 -150 l3 -31 31 23 c18
13 48 36 67 51 51 40 157 61 279 53 53 -3 106 -10 117 -14 19 -7 16 -10 -26
-31 -26 -13 -89 -38 -139 -56 -153 -55 -154 -56 -384 -285 -81 -80 -120 -148
-158 -272 -81 -263 -40 -635 103 -923 67 -135 118 -198 176 -218 26 -10 101
-53 166 -97 l119 -79 31 -98 c157 -492 203 -1054 127 -1523 -9 -52 -20 -99
-24 -104 -13 -13 -170 11 -335 50 -157 38 -477 122 -479 126 -1 2 2 77 6 168
5 91 8 179 7 195 -1 17 -1 73 -1 125 6 406 -1 1844 -9 1960 -32 479 -135 831
-438 1496 -28 62 -55 131 -60 155 -29 126 2 264 72 325 174 149 508 226 839
194z m7928 -55 c-7 -8 -47 -39 -89 -69 -158 -111 -257 -259 -410 -609 -48
-110 -50 -121 -45 -176 l7 -59 -174 -85 c-189 -93 -350 -183 -471 -265 -42
-29 -80 -52 -83 -52 -8 0 -5 130 5 205 23 158 74 291 129 338 20 16 31 37 36
68 17 107 126 288 250 417 51 54 105 112 120 130 33 39 98 74 215 114 105 37
237 56 399 57 109 1 122 -1 111 -14z m1125 -115 c39 -12 132 -54 207 -92 l138
-70 20 -65 c24 -77 25 -102 6 -148 -14 -33 -14 -35 5 -35 11 0 32 12 46 26 24
24 25 30 20 92 l-7 65 30 -28 c17 -16 35 -25 44 -22 28 11 49 -47 44 -120 -4
-58 -9 -70 -67 -155 l-63 -91 37 6 c20 3 52 17 70 31 37 29 92 130 101 188 4
21 11 38 16 38 15 0 99 -92 95 -104 -2 -6 -17 -13 -33 -14 -38 -5 -44 -17 -32
-60 25 -90 -12 -178 -125 -300 -68 -74 -77 -87 -60 -90 36 -5 109 37 163 94
48 51 98 142 114 207 9 37 21 34 54 -12 40 -55 61 -138 70 -277 8 -116 8 -120
-15 -151 -14 -17 -40 -69 -59 -115 -44 -105 -78 -140 -173 -179 -136 -56 -199
-97 -185 -121 11 -17 73 -7 125 20 149 78 229 138 261 197 l16 30 7 -38 c16
-81 -16 -194 -83 -302 l-31 -50 -12 33 c-14 41 -28 40 -57 -3 -28 -44 -109
-98 -187 -125 -33 -11 -106 -26 -162 -32 -89 -10 -101 -13 -90 -26 18 -23 72
-42 114 -42 70 0 200 53 300 121 48 33 53 35 53 14 0 -32 -43 -98 -112 -170
l-71 -75 -126 1 c-69 0 -160 4 -201 8 -41 4 -76 7 -78 5 -2 -1 4 -13 13 -27
25 -39 66 -51 158 -45 45 3 93 3 107 -1 23 -6 19 -11 -55 -63 -77 -54 -242
-148 -262 -148 -5 0 -1 77 10 178 21 207 26 465 13 752 -7 165 -5 235 7 355
25 236 29 343 17 445 -15 134 -33 181 -97 253 -30 34 -63 79 -74 99 -26 50
-76 65 -172 49 -141 -23 -394 -129 -507 -212 -36 -26 -78 -51 -94 -55 -26 -6
-27 -5 -17 13 5 11 40 58 76 104 37 46 70 89 73 95 4 5 27 16 52 23 25 7 94
38 155 69 60 30 130 61 155 68 65 20 227 11 315 -16z m-5675 -165 c7 -9 72
-49 144 -90 155 -87 202 -125 239 -193 l28 -51 -33 -5 c-158 -22 -189 -30
-267 -67 -93 -45 -207 -146 -296 -263 -27 -36 -53 -65 -56 -66 -6 0 -259 424
-259 434 0 2 26 6 58 9 100 9 149 44 258 186 48 63 122 121 155 121 9 0 22 -7
29 -15z m5557 -25 c57 -35 119 -169 143 -310 16 -97 -9 -429 -55 -730 -2 -14
3 -63 12 -110 17 -94 18 -261 3 -385 -5 -44 -19 -235 -30 -425 -30 -506 -63
-857 -94 -1007 -8 -37 -22 -138 -31 -223 -33 -315 -76 -442 -165 -488 -25 -12
-46 -18 -48 -13 -2 5 8 78 22 163 14 84 39 259 56 388 17 129 51 381 76 560
46 334 53 421 74 1000 6 179 18 330 36 465 41 312 26 499 -55 670 -32 70 -81
129 -124 152 -41 21 -155 20 -237 -2 -36 -9 -137 -51 -225 -92 -88 -41 -231
-106 -318 -144 -191 -82 -727 -388 -1147 -652 -96 -61 -193 -119 -215 -129
-22 -10 -53 -25 -70 -34 -169 -90 -309 -153 -350 -160 -32 -5 -46 -1 -68 16
-50 39 -14 92 92 137 63 26 147 74 395 227 59 37 154 90 210 118 55 28 115 63
133 79 47 40 148 95 307 164 189 83 246 112 377 196 62 39 137 82 168 96 108
48 196 95 221 118 14 13 49 28 80 34 70 15 128 42 279 131 66 39 169 89 228
111 60 22 140 53 178 69 85 34 101 36 142 10z m-7616 -80 c37 -20 0 -93 -64
-127 -34 -17 -135 -20 -165 -4 -12 6 -26 21 -32 32 -32 59 183 140 261 99z
m-290 -301 c22 -9 27 -18 32 -55 3 -28 22 -74 51 -124 25 -44 46 -84 46 -89 0
-5 -32 -12 -72 -16 -66 -7 -73 -6 -89 14 -49 60 -72 189 -48 260 12 33 16 34
80 10z m182 -24 c4 -25 25 -79 47 -121 42 -80 50 -114 25 -114 -25 0 -59 43
-79 101 -10 30 -28 70 -39 91 -25 46 -17 88 17 88 20 0 24 -6 29 -45z m7478 3
c35 -16 51 -30 55 -48 3 -14 19 -63 36 -110 57 -160 59 -241 10 -560 -26 -167
-27 -193 -27 -565 0 -214 -2 -405 -3 -423 -1 -21 -12 -42 -29 -58 -25 -23 -25
-25 -8 -38 17 -12 17 -16 2 -57 -9 -24 -18 -87 -22 -139 -7 -106 -111 -923
-151 -1180 -36 -231 -93 -530 -107 -560 -33 -68 -216 -134 -572 -207 -217 -45
-239 -47 -390 -48 -141 0 -168 3 -230 23 -70 24 -155 70 -155 85 0 21 156 312
190 356 24 31 44 69 50 98 6 26 46 152 90 279 129 379 227 740 255 941 17 122
23 135 110 239 37 43 74 95 82 114 23 52 12 109 -36 188 -62 104 -58 118 68
223 37 32 42 74 10 84 -23 8 -22 33 3 48 12 8 31 7 67 -2 69 -17 98 -9 167 50
32 28 77 59 100 70 22 11 56 36 76 57 57 60 178 223 185 250 6 25 -22 92 -38
92 -13 0 -35 -40 -53 -97 -15 -44 -31 -64 -119 -143 -99 -90 -197 -164 -205
-155 -2 2 11 23 30 47 61 75 120 170 179 283 51 100 57 117 57 175 1 36 8 88
16 115 21 66 20 98 -3 126 -17 21 -21 22 -36 9 -14 -12 -16 -25 -12 -68 5 -45
1 -67 -24 -128 -16 -41 -29 -88 -29 -104 0 -59 -184 -270 -372 -428 -89 -74
-258 -201 -323 -244 -82 -52 -145 -78 -291 -119 -235 -66 -271 -86 -405 -231
-208 -226 -302 -310 -420 -377 -94 -53 -260 -101 -348 -101 -48 0 -65 -19 -83
-90 l-13 -55 -67 -3 -67 -3 -36 -49 c-117 -159 -445 -296 -621 -260 -71 15
-90 10 -171 -46 -65 -45 -66 -45 -87 -26 -11 11 -26 18 -32 15 -11 -4 -41 87
-94 287 -39 146 -65 220 -102 294 -34 69 -34 71 46 229 78 154 95 292 60 498
-15 89 -73 287 -94 319 -7 11 29 53 166 187 96 95 178 173 183 173 5 0 25 -20
45 -45 21 -25 43 -45 49 -45 7 0 37 18 67 41 l54 41 17 -39 c23 -55 37 -64 84
-53 61 15 194 12 260 -5 92 -24 175 -69 246 -134 77 -70 127 -137 112 -152 -5
-5 -56 -21 -114 -34 -202 -49 -284 -83 -265 -114 15 -23 78 -22 199 3 153 32
288 76 491 161 247 103 324 146 416 231 28 26 116 79 225 137 99 51 293 157
430 234 554 311 796 427 1145 546 60 21 66 20 121 -5z m-4491 -72 c66 -15 223
-69 249 -85 12 -8 11 -14 -5 -42 -37 -62 -133 -89 -325 -89 -127 0 -174 13
-272 73 -105 65 -132 77 -172 77 -30 0 -35 -3 -35 -24 0 -13 9 -35 20 -49 11
-13 136 -91 277 -172 287 -164 382 -228 465 -313 55 -56 56 -58 45 -92 -7 -19
-24 -41 -38 -49 -24 -13 -35 -13 -106 3 -131 30 -153 10 -79 -73 26 -29 46
-60 46 -71 0 -46 -108 -59 -181 -21 -24 13 -69 44 -99 70 -120 103 -225 158
-395 206 -33 10 -139 48 -235 86 -97 37 -203 75 -238 85 -34 9 -62 22 -62 28
0 23 40 67 183 201 81 76 159 154 173 172 42 55 69 67 204 85 156 21 479 18
580 -6z m-3190 -324 c-281 -191 -431 -509 -446 -947 -11 -298 29 -438 211
-745 66 -111 105 -191 105 -212 0 -16 -88 -1 -120 20 -15 9 -51 46 -81 82 -38
45 -79 79 -132 111 -105 62 -115 73 -154 159 -19 41 -43 84 -53 95 -9 11 -21
37 -24 58 -11 60 -42 149 -80 233 -36 77 -36 77 -36 220 0 113 6 180 31 325
33 200 31 193 132 314 32 39 68 91 80 118 22 47 24 48 142 98 154 65 246 87
360 88 88 0 89 0 65 -17z m1135 3 c38 -8 91 -22 117 -31 l47 -15 -67 -51 c-90
-67 -124 -100 -191 -183 -151 -189 -252 -435 -311 -758 -16 -87 -16 -103 -4
-145 8 -26 26 -114 39 -197 14 -82 32 -181 41 -220 21 -87 149 -375 189 -425
33 -42 31 -43 -43 -36 -150 15 -280 67 -401 161 -71 54 -231 220 -231 238 0 8
-29 115 -64 239 -78 270 -91 353 -83 507 22 396 203 719 481 857 50 24 120 51
156 58 86 19 238 19 325 1z m1158 -325 c42 -16 84 -30 94 -30 11 0 0 -11 -27
-27 -165 -97 -250 -213 -250 -343 0 -42 7 -80 19 -106 29 -64 41 -64 41 0 0
168 92 332 218 389 61 27 159 29 225 4 26 -10 47 -22 47 -26 0 -4 -32 -21 -72
-37 -39 -16 -91 -42 -115 -57 -46 -31 -93 -99 -93 -135 0 -19 16 -11 120 57
143 94 224 122 295 103 55 -15 119 -52 108 -63 -5 -5 -45 -12 -88 -15 -86 -7
-125 -23 -125 -54 0 -26 28 -32 98 -21 73 12 87 8 171 -41 36 -21 83 -41 104
-44 20 -4 37 -10 37 -15 0 -10 -6 -11 -84 -13 -33 0 -61 -6 -63 -11 -9 -26 26
-48 98 -61 49 -10 87 -24 114 -43 46 -33 161 -158 153 -167 -3 -2 -27 0 -52 7
-57 14 -72 5 -56 -35 10 -29 76 -65 118 -66 12 0 25 -8 29 -17 3 -10 14 -36
24 -59 11 -22 19 -50 19 -61 0 -14 20 -39 54 -67 l54 -47 100 -277 c196 -543
240 -723 267 -1092 8 -113 20 -236 25 -275 15 -101 50 -226 66 -232 7 -2 86
14 176 37 90 22 237 56 328 75 190 40 237 55 492 159 203 82 279 106 345 106
26 0 111 24 220 61 370 127 457 149 589 149 60 0 64 2 64 23 0 31 -13 48 -47
62 -30 13 -29 14 40 29 23 5 27 12 27 40 0 18 -7 55 -15 82 -18 58 -19 124 -4
157 9 20 6 33 -14 73 -63 124 -81 331 -41 472 6 20 3 22 -34 22 -48 0 -53 -10
-61 -150 l-6 -95 -43 72 c-67 114 -81 127 -122 116 -24 -7 -58 -5 -105 4 -38
8 -82 11 -97 9 -38 -7 -34 4 14 39 23 17 75 68 116 115 181 205 216 241 287
289 46 30 103 58 147 71 40 12 98 34 128 50 30 15 98 44 150 64 106 41 166 73
194 105 42 46 49 8 11 -54 -35 -56 -32 -100 10 -181 53 -100 47 -133 -39 -234
-71 -83 -73 -89 -116 -345 -6 -38 -33 -126 -61 -195 -27 -69 -60 -174 -74
-235 -14 -60 -37 -159 -51 -220 -34 -142 -105 -334 -203 -543 l-78 -167 -54
-27 c-30 -15 -60 -27 -67 -27 -7 -1 -39 -19 -71 -40 -32 -22 -136 -83 -232
-137 -211 -118 -329 -197 -410 -275 -58 -56 -67 -60 -138 -75 -145 -29 -387
-94 -696 -184 -457 -134 -693 -188 -938 -215 -53 -6 -57 -8 -51 -29 5 -20 0
-23 -64 -34 -79 -13 -237 -62 -506 -156 -104 -36 -191 -64 -193 -62 -3 2 0 30
6 62 36 204 39 625 6 864 -46 335 -150 650 -244 737 -25 23 -57 73 -85 129
-75 153 -177 244 -401 357 -80 40 -119 67 -143 96 -18 23 -77 72 -131 111
-114 80 -162 132 -181 192 -7 24 -31 81 -55 128 -86 172 -115 295 -115 478 0
152 12 206 79 368 27 67 57 147 66 178 11 37 25 62 41 73 14 9 48 53 76 99 45
74 62 91 152 157 191 141 271 176 398 177 62 0 90 -6 151 -30z m4567 -650 c0
-11 -89 -65 -96 -58 -2 3 2 11 11 18 8 7 15 18 15 26 0 7 14 15 33 17 17 2 33
5 35 5 1 1 2 -2 2 -8z m-1082 -892 c17 -7 32 -16 32 -20 0 -4 30 -90 66 -190
36 -101 71 -212 77 -247 9 -47 17 -67 34 -78 31 -20 29 -35 -13 -110 -28 -50
-35 -73 -32 -102 l3 -38 -80 -12 c-44 -7 -172 -43 -285 -81 -113 -38 -274 -85
-358 -104 -110 -25 -194 -53 -300 -97 l-147 -62 -130 -7 c-79 -4 -165 -16
-219 -29 -94 -24 -140 -22 -182 5 -29 20 -73 139 -125 344 -22 85 -42 162 -45
171 -7 24 84 32 91 9 16 -54 37 -214 42 -323 5 -107 9 -129 23 -137 10 -5 20
-6 24 -3 11 11 6 166 -9 288 -26 208 -21 251 31 257 31 4 35 1 48 -33 14 -35
37 -153 51 -268 7 -50 31 -91 55 -91 32 0 23 134 -20 299 -16 62 -27 118 -24
122 3 5 27 9 53 9 57 0 50 20 81 -227 22 -182 38 -263 50 -263 4 0 13 14 20
31 16 37 7 205 -15 294 -16 67 -19 162 -6 184 8 13 12 13 26 1 40 -33 58 -98
75 -265 14 -134 28 -195 46 -195 22 0 27 46 15 123 -6 40 -15 124 -21 187 -6
63 -13 135 -16 158 -6 39 -5 44 12 40 14 -2 22 -18 32 -63 7 -33 17 -78 23
-100 6 -22 14 -79 18 -128 8 -103 25 -131 57 -96 26 29 24 103 -7 199 -32 101
-35 266 -5 299 23 26 29 19 50 -54 24 -82 35 -180 42 -373 7 -181 7 -183 26
-164 46 45 46 189 2 473 -13 86 -24 175 -24 198 0 37 2 41 24 41 51 0 77 -75
101 -290 14 -131 38 -256 50 -269 10 -9 27 17 28 43 2 24 17 39 17 16 0 -5 7
-10 15 -10 23 0 30 44 30 180 0 101 -4 132 -19 163 -22 44 -32 46 -48 11 -9
-20 -8 -43 6 -111 10 -46 15 -87 12 -91 -16 -16 -28 25 -35 125 -6 76 -15 124
-30 158 l-21 48 27 34 c56 68 73 96 73 118 0 20 6 23 68 28 37 4 93 7 125 7
l58 0 35 -76 c20 -41 52 -136 72 -210 20 -76 41 -134 48 -134 58 0 34 162 -50
340 -14 30 -26 71 -26 90 l1 35 44 -48 c55 -60 109 -167 145 -289 22 -74 31
-93 46 -93 14 0 20 9 22 33 5 50 -24 135 -94 276 -35 72 -63 135 -61 140 9 27
124 29 195 4z m198 -169 c25 -50 50 -136 41 -145 -14 -14 -127 212 -127 254 0
20 56 -52 86 -109z m-5936 0 c251 -36 436 -163 523 -357 51 -113 69 -204 72
-362 2 -117 7 -161 26 -230 22 -77 24 -104 24 -290 0 -146 -5 -237 -18 -315
-17 -109 -70 -341 -79 -351 -13 -13 -289 46 -602 127 l-38 10 6 52 c4 29 22
108 41 177 19 69 40 157 47 195 17 94 17 728 0 922 l-13 142 -56 98 c-30 54
-68 120 -84 146 -16 27 -29 50 -29 51 0 5 99 -4 180 -15z m1164 -176 c28 -14
87 -50 131 -81 44 -30 118 -75 165 -100 122 -65 193 -117 227 -165 171 -239
271 -784 242 -1327 -5 -107 -14 -247 -19 -310 -5 -63 -10 -120 -10 -127 0 -7
-43 0 -130 22 -215 56 -534 147 -543 155 -5 4 1 72 12 151 54 374 71 821 42
1074 -35 304 -109 539 -217 686 -18 25 -30 49 -26 53 11 12 71 -3 126 -31z
m7676 -513 c29 -16 14 -45 -61 -111 -73 -65 -105 -117 -135 -227 -19 -68 -15
-80 19 -65 15 7 28 28 40 66 10 30 24 57 31 60 8 3 41 41 74 84 96 126 108
130 106 30 -1 -95 -51 -172 -159 -247 -48 -33 -285 -153 -291 -147 -6 6 41
108 78 168 18 30 67 104 109 165 43 60 94 138 114 172 37 64 44 69 75 52z
m-135 -20 c4 -6 -16 -36 -44 -66 -149 -163 -216 -285 -229 -414 l-7 -65 -109
-3 -109 -3 7 33 c11 60 64 152 151 262 47 60 102 135 122 168 25 40 42 58 57
59 12 0 39 9 61 19 45 21 91 25 100 10z m-403 -202 c-81 -107 -139 -221 -148
-291 -7 -52 -25 -67 -81 -67 -19 0 -23 3 -15 13 6 6 35 69 65 138 65 152 115
230 171 268 41 28 68 41 74 35 2 -1 -28 -44 -66 -96z m-197 -85 c-9 -21 -28
-56 -44 -78 -46 -66 -61 -101 -61 -149 0 -56 -23 -81 -92 -95 -54 -12 -88 -14
-88 -6 0 22 51 96 105 154 69 72 75 85 49 99 -13 7 -1 19 57 59 41 28 77 51
82 52 4 0 0 -16 -8 -36z m-492 -227 c18 -14 18 -16 -1 -58 -16 -36 -60 -101
-140 -206 -21 -27 -122 -43 -147 -22 -26 22 -16 35 35 47 99 24 171 103 185
204 11 77 13 78 68 35z m180 -32 c-2 -10 -5 -39 -7 -63 -3 -39 -7 -45 -30 -48
-14 -2 -44 -10 -67 -18 l-41 -15 24 33 c14 17 42 56 63 85 37 52 62 63 58 26z
m637 -114 c123 -16 210 -45 274 -93 18 -13 18 -15 -8 -67 -41 -81 -93 -147
-150 -190 -50 -38 -224 -125 -233 -117 -5 6 67 96 169 210 48 55 97 112 109
128 l20 29 -38 0 c-49 0 -71 -19 -208 -179 -62 -74 -118 -149 -135 -186 -30
-63 -30 -63 -92 -79 -35 -9 -97 -25 -138 -36 -228 -62 -455 -87 -620 -70 -57
5 -108 14 -112 18 -4 4 11 46 34 92 30 61 59 103 104 147 34 35 67 63 72 63 9
0 -19 -82 -58 -167 -20 -43 -18 -73 5 -73 28 0 64 43 90 107 14 37 49 99 76
137 27 38 49 75 49 80 0 6 24 24 54 39 44 23 76 58 76 82 0 3 -15 5 -34 5 -25
0 -52 -14 -107 -54 -41 -30 -92 -59 -114 -65 -73 -19 -58 1 55 68 61 37 221
99 300 116 l34 8 -64 -72 c-107 -119 -177 -207 -214 -271 -37 -63 -38 -80 -7
-80 32 0 71 40 107 111 44 89 83 131 216 235 59 47 113 93 120 103 8 11 25 21
38 24 49 9 247 7 330 -3z m-9925 -155 c143 -26 348 -81 444 -120 71 -28 102
-35 157 -35 95 -1 208 -22 285 -55 137 -58 190 -74 276 -86 118 -15 655 -150
768 -193 89 -34 123 -42 305 -71 52 -8 156 -33 230 -55 375 -110 997 -283
1170 -325 288 -71 296 -73 329 -101 27 -22 31 -32 31 -74 0 -27 -4 -51 -9 -55
-10 -5 -63 8 -466 120 -550 153 -1161 311 -1425 370 -157 35 -316 71 -355 80
-211 48 -408 103 -640 179 -315 103 -361 115 -635 166 -264 49 -333 68 -483
132 -117 50 -147 73 -147 113 0 23 47 47 65 34 6 -4 51 -14 100 -24z m8754
-51 c21 -5 15 -14 -79 -109 -142 -143 -161 -152 -357 -170 -87 -8 -187 -22
-223 -30 -106 -25 -285 -31 -351 -11 -31 8 -62 22 -69 31 -20 24 -24 127 -7
150 14 19 24 20 149 15 73 -2 189 -4 258 -3 134 1 124 -2 379 87 149 52 205
60 300 40z m85 -142 c-9 -15 -39 -53 -66 -84 -42 -49 -50 -66 -59 -120 -15
-98 -15 -98 -52 -87 -17 5 -60 9 -94 9 -34 0 -64 4 -67 9 -3 4 47 59 112 122
80 78 134 122 170 138 38 18 54 32 59 50 6 20 8 22 11 8 2 -10 -4 -30 -14 -45z
m-1319 -76 c-5 -58 -4 -63 29 -107 69 -93 206 -129 421 -108 60 5 121 12 135
15 l25 4 -25 -11 c-86 -37 -385 -75 -526 -66 -150 10 -244 55 -265 128 -25 81
21 151 126 194 79 32 88 27 80 -49z m-7310 -52 c88 -19 198 -44 245 -57 l85
-24 -35 -11 c-29 -10 -46 -9 -90 3 -30 8 -93 24 -140 36 -190 45 -213 53 -239
76 -21 20 -22 24 -6 18 11 -3 92 -22 180 -41z m6335 -76 c0 -64 -66 -109 -201
-139 -51 -11 -97 -26 -103 -34 -13 -18 -62 -31 -356 -96 -315 -70 -444 -104
-563 -151 -56 -22 -178 -58 -272 -79 -333 -76 -562 -137 -825 -220 -69 -21
-131 -39 -137 -39 -6 0 -14 14 -18 30 -11 50 14 76 98 101 39 12 137 44 217
71 337 114 736 226 838 235 44 3 82 14 109 29 29 17 57 24 92 24 31 0 120 20
228 51 98 28 306 83 463 124 157 40 312 84 345 98 66 26 85 25 85 -5z m1800
-47 c0 -5 -7 -14 -15 -21 -12 -10 -28 -10 -75 -1 -33 7 -65 9 -70 6 -6 -3 -10
-4 -10 0 0 3 10 10 23 15 29 11 147 13 147 1z m-3711 -727 c-35 -38 -63 -50
-177 -73 -56 -11 -136 -36 -176 -55 -89 -41 -126 -50 -166 -41 -69 15 -21 58
85 76 39 6 117 28 175 49 157 57 191 66 254 69 l29 1 -24 -26z m-929 -81 c88
-16 224 -55 250 -73 13 -9 13 -11 0 -20 -23 -16 -78 -6 -156 28 -45 20 -101
35 -158 42 -80 10 -146 31 -146 46 0 8 103 -4 210 -23z m7251 -30 c22 -58 15
-63 -136 -98 -77 -18 -173 -43 -214 -54 -41 -11 -77 -19 -79 -16 -3 2 13 22
34 44 33 32 58 45 150 74 61 19 129 44 150 56 55 29 82 27 95 -6z m-3899 -545
c69 -37 213 -167 200 -180 -13 -13 -101 25 -183 79 -37 24 -83 50 -103 58 -20
8 -36 21 -36 28 0 6 -3 23 -7 36 -6 23 -5 24 33 17 21 -4 64 -21 96 -38z m898
-82 c8 -38 -3 -49 -18 -18 -6 9 -13 33 -17 52 -7 33 -6 34 10 19 9 -9 20 -33
25 -53z m841 -337 c20 -10 20 -11 2 -31 -28 -32 -132 -103 -200 -137 -55 -27
-202 -81 -223 -81 -9 0 17 79 32 97 6 7 47 24 92 38 48 15 114 45 161 75 82
52 102 58 136 39z m-703 -92 c12 -11 22 -30 22 -43 0 -21 -1 -21 -62 12 -35
18 -71 34 -80 34 -26 0 -22 18 5 23 38 8 91 -4 115 -26z m192 -137 c0 -26 -4
-40 -13 -40 -20 0 -37 21 -37 45 0 26 8 35 32 35 14 0 18 -8 18 -40z"/>
<path d="M7340 7035 c-31 -7 -106 -34 -169 -60 -144 -59 -246 -85 -333 -85
-65 0 -68 -1 -68 -24 0 -40 22 -48 125 -47 82 1 99 4 130 25 20 14 86 41 148
62 155 51 201 77 228 127 11 20 12 20 -61 2z"/>
<path d="M4800 9646 c-128 -129 -178 -231 -187 -382 -5 -86 -4 -93 18 -115
l23 -23 12 69 c22 131 66 231 156 356 30 42 69 97 87 122 l32 47 -34 0 c-28 0
-44 -11 -107 -74z"/>
<path d="M4614 9640 c-36 -14 -82 -80 -119 -169 l-36 -86 4 91 c2 49 10 100
16 112 11 20 9 22 -12 22 -61 0 -99 -67 -101 -179 -1 -61 4 -75 56 -181 55
-113 93 -162 134 -174 20 -6 21 -4 16 124 -6 170 13 271 73 390 14 27 25 52
25 55 0 8 -32 5 -56 -5z"/>
<path d="M4989 9531 c-156 -61 -286 -234 -297 -394 -3 -58 -1 -75 12 -86 13
-11 16 -11 20 0 18 63 45 120 88 191 28 46 62 102 76 126 18 32 39 50 83 72
37 19 64 41 74 60 28 55 19 60 -56 31z"/>
<path d="M4955 9295 c-78 -27 -230 -222 -211 -270 12 -33 44 -15 86 50 70 107
161 174 238 175 37 0 41 14 10 34 -36 22 -80 26 -123 11z"/>
<path d="M4976 9158 c34 -67 94 -146 144 -191 58 -53 66 -55 75 -27 19 61 -62
177 -158 225 -70 35 -82 33 -61 -7z"/>
<path d="M3526 9171 c-27 -43 -11 -182 26 -237 41 -59 147 -107 161 -71 7 20
-5 35 -43 55 -27 14 -39 31 -61 87 -15 39 -31 94 -35 123 -5 41 -10 52 -25 52
-10 0 -20 -4 -23 -9z"/>
<path d="M5067 8886 c-54 -20 -113 -63 -160 -117 -39 -46 -41 -46 -56 -28 -24
29 -85 40 -166 28 -38 -5 -72 -13 -75 -17 -49 -58 -111 -144 -124 -169 -21
-43 -21 -96 2 -116 17 -16 20 -12 61 73 65 135 124 176 220 150 46 -12 54 -24
71 -109 10 -54 24 -81 41 -81 13 0 54 87 78 168 15 48 33 86 55 109 28 31 40
37 89 41 48 4 63 0 101 -22 77 -45 126 -155 126 -283 0 -35 3 -63 6 -63 3 0
18 9 34 20 40 28 54 70 48 143 -16 196 -189 330 -351 273z"/>
<path d="M5144 8537 c-48 -42 -43 -159 8 -191 14 -8 22 -6 39 10 40 40 36 204
-5 204 -8 0 -27 -10 -42 -23z"/>
<path d="M4698 8477 c-17 -31 -16 -129 2 -161 15 -29 64 -61 80 -51 15 10 23
134 11 176 -7 21 -13 39 -14 39 -1 0 -17 4 -35 9 -28 8 -34 7 -44 -12z"/>
<path d="M3370 8099 c-23 -97 8 -217 65 -255 17 -11 25 -25 25 -45 0 -39 14
-44 58 -21 40 21 40 22 27 120 -7 48 -11 55 -46 72 -60 31 -82 66 -76 122 5
36 2 48 -9 52 -28 11 -32 7 -44 -45z"/>
<path d="M4715 7286 c-55 -26 -78 -47 -94 -87 -9 -24 -6 -30 30 -58 39 -32 39
-32 101 -21 108 20 198 84 198 142 0 50 -148 65 -235 24z"/>
<path d="M1185 8894 c-11 -8 -60 -38 -110 -66 -96 -53 -148 -96 -171 -140 -18
-35 -18 -38 4 -38 9 0 37 18 62 41 24 22 87 64 139 92 92 49 161 100 161 118
0 15 -63 10 -85 -7z"/>
<path d="M1025 8289 c-147 -75 -249 -191 -299 -344 -17 -52 -46 -195 -40 -195
14 0 52 25 62 41 7 11 19 51 27 90 17 80 69 187 121 247 19 22 65 57 102 78
86 47 102 62 102 91 0 29 -2 29 -75 -8z"/>
<path d="M1182 7275 c-6 -13 -39 -59 -73 -102 -82 -103 -102 -150 -103 -239
-1 -57 3 -76 18 -93 25 -27 34 -27 29 2 -7 38 15 137 45 202 16 33 59 104 95
158 l67 97 -33 0 c-26 0 -36 -6 -45 -25z"/>
<path d="M1207 6998 c-69 -156 -83 -220 -66 -298 21 -99 65 -82 59 23 -5 110
-2 126 44 226 53 112 56 131 23 131 -20 0 -30 -13 -60 -82z"/>
<path d="M1616 6699 c-56 -14 -105 -47 -112 -75 -4 -14 -4 -28 0 -31 3 -3 41
3 83 13 56 14 113 19 200 19 121 0 122 0 109 20 -27 40 -75 59 -160 61 -45 2
-99 -1 -120 -7z"/>
<path d="M11697 6430 c-12 -106 -46 -150 -191 -245 -61 -40 -120 -82 -131 -95
l-20 -23 48 6 c62 9 120 38 231 117 59 42 93 74 102 95 18 44 28 127 20 169
-6 29 -11 36 -30 36 -21 0 -24 -6 -29 -60z"/>
<path d="M5552 6220 c-47 -20 -36 -61 24 -86 17 -7 62 -18 100 -24 38 -6 79
-14 92 -17 54 -13 -1 73 -69 108 -47 23 -115 32 -147 19z"/>
<path d="M4968 5939 c-80 -19 -153 -84 -191 -169 -41 -95 -32 -306 18 -417 20
-45 68 -94 80 -82 2 3 -5 54 -17 114 -11 61 -22 163 -25 228 -5 112 -4 120 21
172 21 42 36 58 70 74 23 12 47 21 53 21 12 0 53 47 53 61 0 11 -12 10 -62 -2z"/>
<path d="M4679 5720 c-49 -14 -90 -54 -120 -116 -29 -59 -31 -68 -27 -156 3
-81 7 -102 36 -160 25 -51 43 -74 79 -97 26 -17 52 -31 59 -31 8 0 -2 35 -30
98 -49 110 -66 177 -66 263 0 58 1 60 55 119 30 33 55 67 55 75 0 17 -3 17
-41 5z"/>
<path d="M4369 5158 c-16 -40 -17 -128 -1 -184 16 -56 67 -129 106 -154 19
-11 50 -20 70 -20 33 0 37 3 34 22 -2 15 -19 31 -47 47 -34 19 -49 36 -70 80
-22 48 -26 69 -26 149 l0 92 -26 0 c-21 0 -30 -8 -40 -32z"/>
<path d="M8510 4395 c0 -16 15 -38 46 -67 25 -23 58 -67 74 -98 40 -80 73
-205 66 -251 -5 -28 -2 -42 11 -55 17 -17 18 -13 21 79 5 186 -58 346 -158
397 -51 26 -60 25 -60 -5z"/>
<path d="M8060 4275 c0 -14 15 -48 34 -75 60 -88 102 -250 91 -353 -5 -47 -3
-73 9 -100 18 -45 31 -47 52 -5 13 26 15 51 11 132 -8 161 -61 325 -126 395
-36 39 -71 42 -71 6z"/>
<path d="M11008 2825 c-110 -72 -164 -133 -214 -240 -42 -91 -47 -117 -29
-141 15 -19 15 -19 31 1 8 11 38 61 66 110 76 136 112 180 166 206 26 13 53
30 59 40 7 9 35 22 63 29 50 12 61 25 38 48 -28 28 -81 13 -180 -53z"/>
<path d="M11234 2812 c-89 -65 -257 -265 -269 -321 -7 -32 10 -75 26 -66 5 4
28 34 51 68 65 97 127 164 200 217 59 43 108 98 108 123 0 4 -17 7 -38 7 -27
0 -51 -9 -78 -28z"/>
<path d="M10950 3620 c-64 -22 -120 -76 -120 -116 0 -30 4 -29 115 18 46 19
96 32 148 36 l77 7 -16 24 c-36 51 -113 63 -204 31z"/>
<path d="M8476 2153 c-15 -54 -36 -179 -36 -220 0 -48 25 -114 46 -120 8 -3
12 21 12 79 0 74 15 214 28 261 4 13 -1 17 -20 17 -15 0 -27 -7 -30 -17z"/>
<path d="M8647 2053 c-48 -55 -76 -252 -41 -301 25 -37 34 -25 34 46 0 49 9
90 31 152 16 47 32 93 35 103 5 13 1 17 -18 17 -14 0 -32 -8 -41 -17z"/>
<path d="M8825 1933 c-35 -121 -38 -206 -10 -247 l20 -30 7 35 c11 57 46 251
53 297 6 40 5 42 -18 42 -22 0 -27 -8 -52 -97z"/>
<path d="M10240 1966 c0 -25 30 -69 67 -99 35 -28 60 -77 79 -151 9 -37 27
-80 40 -95 l23 -26 1 49 c0 60 -24 155 -55 215 -28 56 -68 95 -117 116 -38 15
-38 15 -38 -9z"/>
<path d="M10062 1885 c-18 -38 -16 -43 26 -64 41 -21 49 -37 82 -164 10 -43
26 -87 34 -98 13 -20 14 -19 21 19 9 56 -11 184 -37 240 -22 44 -75 92 -103
92 -6 0 -17 -11 -23 -25z"/>
<path d="M9636 1797 c-51 -55 -71 -125 -71 -252 0 -102 2 -114 29 -162 20 -37
41 -58 72 -74 73 -39 71 -3 -5 85 -49 56 -56 79 -56 171 0 66 3 75 43 136 27
42 42 77 42 97 0 41 -15 40 -54 -1z"/>
<path d="M9930 1771 c0 -33 -4 -62 -9 -66 -5 -3 -19 12 -31 33 -12 21 -35 46
-50 55 -31 19 -85 23 -95 7 -3 -5 16 -34 44 -63 61 -64 69 -85 76 -190 3 -45
8 -102 11 -127 l6 -45 25 29 c24 29 25 32 18 140 -5 91 -4 115 9 131 21 28 29
15 65 -102 20 -63 42 -113 57 -130 l25 -28 -5 82 c-11 165 -59 287 -128 324
-16 9 -18 4 -18 -50z"/>
<path d="M9410 1600 c0 -148 13 -213 47 -240 27 -21 58 -26 68 -10 3 5 -10 33
-30 61 -37 55 -38 57 -35 212 l2 97 -26 0 -26 0 0 -120z"/>
<path d="M9690 1651 c0 -21 7 -56 16 -76 9 -21 20 -65 25 -98 12 -75 24 -97
51 -97 20 0 21 3 15 73 -8 86 -31 160 -64 205 -32 42 -43 41 -43 -7z"/>
</g>
</svg>
