<svg xmlns="http://www.w3.org/2000/svg" version="1.1" xmlns:xlink="http://www.w3.org/1999/xlink" xmlns:svgjs="http://svgjs.dev/svgjs" width="1000" height="1000" viewBox="0 0 1000 1000"><rect width="1000" height="1000" fill="#398378"></rect><g transform="matrix(0.7,0,0,0.7,150,218.95000000000005)"><svg viewBox="0 0 448 360" data-background-color="#398378" preserveAspectRatio="xMidYMid meet" height="803" width="1000" xmlns="http://www.w3.org/2000/svg" xmlns:xlink="http://www.w3.org/1999/xlink"><g id="tight-bounds" transform="matrix(1,0,0,1,0,0)"><svg viewBox="0 0 448 360" height="360" width="448"><g><svg></svg></g><g><svg viewBox="0 0 448 360" height="360" width="448"><g><path xmlns="http://www.w3.org/2000/svg" d="M193.855 44.683c1.378 0 2.494 1.116 2.495 2.494 0 1.378-1.116 2.494-2.495 2.495h-23.846l-17.167 17.167c-0.973 0.973-2.551 0.973-3.53 0-0.973-0.973-0.973-2.551 0-3.529l13.644-13.645h-40.378c-11.518 0-19.151 2.688-23.815 8.113-4.739 5.519-6.66 14.056-6.66 25.63 0 0.069 0 0.137-0.006 0.206l0.212 36.692 14.692-14.692c0.973-0.973 2.551-0.973 3.53 0 0.973 0.973 0.973 2.551 0 3.53l-18.178 18.178c0.206 35.832 0.193 71.358-0.013 107.19 25.486 25.2 50.617 50.312 75.811 75.791h25.38c1.378 0 2.494 1.116 2.495 2.495 0 1.378-1.116 2.494-2.495 2.494h-20.448l25.942 26.241 0.006-0.006c8.188 8.188 15.577 12.859 22.824 13.413 7.146 0.543 14.442-2.956 22.586-11.093l28.555-28.555h-20.722c-1.378 0-2.494-1.116-2.495-2.494 0-1.378 1.116-2.494 2.495-2.495h25.711l16.625-16.625c0.973-0.973 2.551-0.973 3.529 0 0.973 0.973 0.973 2.551 0 3.53l-13.101 13.102h40.377c11.518 0 19.151-2.688 23.815-8.113 4.739-5.519 6.66-14.056 6.66-25.63h0.013l-0.212-36.898-16.014 16.014c-0.973 0.973-2.551 0.973-3.53 0-0.973-0.973-0.973-2.551 0-3.53l19.5-19.5c-0.206-35.832-0.193-71.358 0.013-107.19-25.486-25.2-50.617-50.312-75.811-75.791h-26.147c-1.378 0-2.494-1.116-2.495-2.495 0-1.378 1.116-2.494 2.495-2.494h21.215l-25.824-26.123c-0.044-0.037-0.081-0.075-0.124-0.112-8.188-8.188-15.577-12.859-22.824-13.413-7.146-0.543-14.442 2.956-22.586 11.093l-28.555 28.555h18.858zM122.578 44.683h45.367l32.078-32.078c9.248-9.248 17.81-13.195 26.484-12.534 8.568 0.649 16.956 5.824 25.985 14.854 0.05 0.05 0.094 0.094 0.137 0.143l29.278 29.615h43.508c13.071 0 21.919 3.268 27.594 9.871 5.6 6.517 7.864 16.101 7.864 28.867 0 0.081-0.006 0.156-0.012 0.23l-0.225 39.742 28.43 28.112 0.006-0.006c9.03 9.03 14.206 17.411 14.854 25.985 0.661 8.674-3.293 17.236-12.534 26.484l-30.768 30.768 0.237 41.843h0.012c0 12.765-2.27 22.35-7.864 28.867-5.675 6.604-14.524 9.872-27.594 9.871h-45.366l-32.078 32.078c-9.248 9.248-17.81 13.195-26.484 12.534-8.568-0.649-16.956-5.824-25.985-14.854l0.006-0.006-29.421-29.758h-43.509c-13.071 0-21.919-3.268-27.594-9.872-5.6-6.517-7.864-16.101-7.863-28.866h0.012l0.231-39.972-28.293-27.969c-0.05-0.044-0.1-0.087-0.143-0.137-9.03-9.03-14.206-17.411-14.854-25.985-0.661-8.674 3.293-17.236 12.534-26.484l30.768-30.768-0.237-41.607c-0.006-0.075-0.012-0.156-0.012-0.23 0-12.765 2.27-22.35 7.864-28.867 5.675-6.604 14.524-9.872 27.594-9.871zM87.682 179.997l-0.274-47.724-27.276 27.276c-8.138 8.138-11.636 15.44-11.094 22.587 0.549 7.246 5.226 14.642 13.413 22.823 0.037 0.037 0.081 0.081 0.113 0.125l24.837 24.551 0.281-49.644zM92.303 241.483l-0.2 35.09h0.013c0 11.58 1.921 20.117 6.66 25.63 4.664 5.432 12.297 8.113 23.815 8.113h38.576l-33.55-33.936-35.308-34.903zM325.415 49.672h-38.575l33.549 33.936 35.308 34.902 0.2-34.884c-0.006-0.069-0.006-0.137-0.007-0.205 0-11.58-1.921-20.117-6.66-25.63-4.664-5.432-12.297-8.113-23.815-8.113zM360.599 130.352l-0.281 49.645 0.274 47.724 27.276-27.276c8.138-8.138 11.636-15.44 11.094-22.587-0.549-7.252-5.226-14.642-13.413-22.824l0.006-0.006-24.956-24.669z" fill="#ffffff" fill-rule="nonzero" stroke="none" stroke-width="1" stroke-linecap="butt" stroke-linejoin="miter" stroke-miterlimit="10" stroke-dasharray="" stroke-dashoffset="0" font-family="none" font-weight="none" font-size="none" text-anchor="none" style="mix-blend-mode: normal" data-fill-palette-color="tertiary"></path></g><g transform="matrix(1,0,0,1,112,151.80882511998107)"><svg viewBox="0 0 224 56.38234976003785" height="56.38234976003785" width="224"><g><svg viewBox="0 0 521.319798218716 131.2198" height="56.38234976003785" width="224"><g><svg viewBox="0 0 521.319798218716 131.2198" height="131.2198" width="521.319798218716"><g id="textblocktransform"><svg viewBox="0 0 521.319798218716 131.2198" height="131.2198" width="521.319798218716" id="textblock"><g><svg viewBox="0 0 521.319798218716 131.2198" height="131.2198" width="521.319798218716"><g><svg><g></g><g></g></svg></g><g><svg><g><svg></svg></g><g></g></svg></g><g id="text-0"><svg viewBox="0 0 521.319798218716 131.2198" height="131.2198" width="521.319798218716"><g transform="matrix(1,0,0,1,0,45.40989999999999)"><svg width="115.9" viewBox="0.75 -40 115.88999938964844 40.400001525878906" height="40.4" data-palette-color="#ffffff"><path d="M17.35-34.65L17.35-2Q17.35 0.4 14.35 0.4L14.35 0.4Q11.4 0.4 11.4-2L11.4-2 11.4-34.65 2.65-34.65Q0.85-34.65 0.75-37.2L0.75-37.2Q0.75-39.7 2.65-39.7L2.65-39.7 26.1-39.7Q28-39.7 27.9-37.2L27.9-37.2Q27.9-34.65 26.1-34.65L26.1-34.65 17.35-34.65ZM37.4-22.15L37.4-8Q37.4-6.8 38.17-5.75 38.95-4.7 40.8-4.7L40.8-4.7 47.05-4.7Q48.9-4.7 49.67-5.63 50.45-6.55 50.45-7.75L50.45-7.75 50.45-8.3Q50.45-10.65 53.2-10.65L53.2-10.65Q55.95-10.65 55.95-8.3L55.95-8.3 55.95-7.7Q55.95-5.6 55.27-4.25 54.6-2.9 53.25-1.9L53.25-1.9Q50.6 0 47.95 0L47.95 0 39.55 0Q36.9 0 34.4-1.9L34.4-1.9Q33.2-2.9 32.55-4.42 31.9-5.95 31.9-7.95L31.9-7.95 31.9-22.2Q31.9-26.25 34.4-28.2L34.4-28.2Q35.65-29.1 36.97-29.63 38.3-30.15 39.55-30.15L39.55-30.15 47.95-30.15Q49.15-30.15 50.6-29.68 52.05-29.2 53.3-28.4L53.3-28.4Q54.5-27.55 55.22-26.05 55.95-24.55 55.95-22.5L55.95-22.5 55.95-15.75Q55.95-14.6 55.27-13.7 54.6-12.8 52.8-12.8L52.8-12.8 42-12.8Q40.2-12.8 40.1-15.15L40.1-15.15Q40.1-17.5 42-17.5L42-17.5 50.5-17.5 50.45-22.15Q50.45-23.4 49.67-24.43 48.9-25.45 47.05-25.45L47.05-25.45 40.8-25.45Q38.95-25.45 38.17-24.43 37.4-23.4 37.4-22.15L37.4-22.15ZM86.34-10.3L86.34-7.95Q86.34-3.85 83.65-1.9L83.65-1.9Q81 0 78.34 0L78.34 0 69.95 0Q67.3 0 64.8-1.9L64.8-1.9Q63.6-2.9 62.95-4.42 62.3-5.95 62.3-7.95L62.3-7.95 62.3-22.2Q62.3-26.25 64.8-28.2L64.8-28.2Q66.05-29.1 67.37-29.63 68.7-30.15 69.95-30.15L69.95-30.15 78.34-30.15Q79.55-30.15 81-29.68 82.45-29.2 83.7-28.4L83.7-28.4Q84.9-27.55 85.62-26.05 86.34-24.55 86.34-22.5L86.34-22.5 86.34-20Q86.34-17.6 83.59-17.6L83.59-17.6Q80.84-17.6 80.84-20L80.84-20 80.84-22.15Q80.84-23.4 80.07-24.43 79.3-25.45 77.45-25.45L77.45-25.45 71.2-25.45Q69.34-25.45 68.57-24.43 67.8-23.4 67.8-22.15L67.8-22.15 67.8-8Q67.8-6.8 68.57-5.75 69.34-4.7 71.2-4.7L71.2-4.7 77.45-4.7Q79.3-4.7 80.07-5.75 80.84-6.8 80.84-8L80.84-8 80.84-10.3Q80.84-12.65 83.59-12.65L83.59-12.65Q86.34-12.65 86.34-10.3L86.34-10.3ZM98.09-25.4L98.09-2.1Q98.09 0.3 95.34 0.3L95.34 0.3Q92.59 0.3 92.59-2.1L92.59-2.1 92.59-37.6Q92.59-40 95.34-40L95.34-40Q98.09-40 98.09-37.6L98.09-37.6 98.09-30.1 108.64-30.1Q111.19-30.1 113.94-28.2L113.94-28.2Q116.64-26.3 116.64-22.2L116.64-22.2 116.64-2.1Q116.64 0.3 113.89 0.3L113.89 0.3Q111.14 0.3 111.14-2.1L111.14-2.1 111.14-21.75Q111.14-23.05 110.34-24.25L110.34-24.25 110.39-24.2Q109.74-25.4 107.74-25.4L107.74-25.4 98.09-25.4Z" opacity="1" transform="matrix(1,0,0,1,0,0)" fill="#ffffff" class="undefined-p-0"></path></svg></g><g><svg xmlns="http://www.w3.org/2000/svg" viewBox="20 20.17376136779785 60.018585205078125 59.668540954589844" x="131.39010000000002" y="0" height="131.2198" width="131.98959821871594" class="icon-s-0" data-fill-palette-color="accent" id="s-0"><g data-name="Calque 2" fill="#ffffff" data-fill-palette-color="accent"><path d="M23.82 23.07A1.82 1.82 0 1 1 22 24.88 1.82 1.82 0 0 1 23.82 23.07Zm0 5.58a3.73 3.73 0 0 0 2-0.56c2.07 1.44 9.08 6.45 10.21 7.14a6.25 6.25 0 0 0 3.19 1.25c0.63 0 2 0.06 4.13 0.06A2.75 2.75 0 0 0 45.8 38a2.76 2.76 0 1 0-2.69-3.32c-1.94 0-3.26 0-3.82-0.06A3.81 3.81 0 0 1 37 33.71c-1-0.63-7.64-5.39-9.9-7A4 4 0 0 0 27.57 25a3.7 3.7 0 0 0-3.7-3.7 3.74 3.74 0 0 0-3.7 3.7A3.6 3.6 0 0 0 23.82 28.64Z" fill="#ffffff" data-fill-palette-color="accent"></path><path d="M22.13 44.61a1.82 1.82 0 1 1 1.82 1.82A1.78 1.78 0 0 1 22.13 44.61Zm5.39 0.94H33a2.71 2.71 0 0 0 2.57 1.82 2.76 2.76 0 0 0 0-5.51A2.71 2.71 0 0 0 33 43.67H27.52a3.76 3.76 0 0 0-3.57-2.76 3.7 3.7 0 0 0-3.7 3.7 3.74 3.74 0 0 0 3.7 3.7A3.52 3.52 0 0 0 27.52 45.55Z" fill="#ffffff" data-fill-palette-color="accent"></path><path d="M28.33 49.87a1.82 1.82 0 1 1-1.82 1.82A1.82 1.82 0 0 1 28.33 49.87Zm0 5.58a3.7 3.7 0 0 0 3.57-2.76H33a2.72 2.72 0 0 0 2.57 1.82 2.76 2.76 0 0 0 0-5.51A2.71 2.71 0 0 0 33 50.81H31.9a3.76 3.76 0 0 0-3.57-2.76 3.7 3.7 0 0 0 0 7.39Z" fill="#ffffff" data-fill-palette-color="accent"></path><path d="M23.7 75.24a1.82 1.82 0 1 1 1.82-1.82A1.78 1.78 0 0 1 23.7 75.24Zm1.06-5.39V63.4c0-2.94 1-3.57 2.69-3.57 2.07 0 4.38 0 5.39 0.06a2.73 2.73 0 0 0 2.63 1.82 2.76 2.76 0 1 0 0-5.51A2.71 2.71 0 0 0 32.9 58c-1.06 0-3.38-0.06-5.39-0.06-4.64 0-4.64 4.07-4.64 5.45v6.39A3.76 3.76 0 0 0 20 73.42a3.7 3.7 0 0 0 3.7 3.7 3.74 3.74 0 0 0 3.7-3.7A3.58 3.58 0 0 0 24.76 69.86Z" fill="#ffffff" data-fill-palette-color="accent"></path><path d="M75.06 75.24a1.82 1.82 0 1 1 1.82-1.82A1.82 1.82 0 0 1 75.06 75.24Zm0.81-5.45V63.4c0-1.31 0-5.45-4.57-5.45-2.07 0-4.38 0-5.39 0.06a2.71 2.71 0 0 0-2.57-1.82 2.76 2.76 0 1 0 0 5.51A2.85 2.85 0 0 0 66 59.9c1.06 0 3.38-0.06 5.39-0.06C73 59.83 74 60.4 74 63.4v6.45a3.7 3.7 0 0 0 1 7.26 3.71 3.71 0 0 0 0.82-7.33Z" fill="#ffffff" data-fill-palette-color="accent"></path><path d="M72.42 23.69A1.57 1.57 0 1 1 74 25.26 1.59 1.59 0 0 1 72.42 23.69ZM63.59 47.37A2.76 2.76 0 0 0 66 45.86h4.57c4.26 0 4.26-3.76 4.26-5V27a3.46 3.46 0 1 0-4.26-3.38A3.44 3.44 0 0 0 73.05 27v13.9c0 2.63-0.82 3.13-2.38 3.13H66.35a2.75 2.75 0 0 0-5.45 0.56A2.63 2.63 0 0 0 63.59 47.37Z" fill="#ffffff" data-fill-palette-color="accent"></path><path d="M76.37 50.13a1.82 1.82 0 1 1-1.82 1.82A1.78 1.78 0 0 1 76.37 50.13Zm-13 4.57A2.71 2.71 0 0 0 66 52.88h6.77a3.76 3.76 0 0 0 3.57 2.76A3.7 3.7 0 1 0 72.74 51H66a2.71 2.71 0 0 0-2.57-1.82 2.78 2.78 0 0 0-2.76 2.76A2.73 2.73 0 0 0 63.4 54.7Z" fill="#ffffff" data-fill-palette-color="accent"></path><rect x="40.48" y="39.98" width="18.04" height="23.93" rx="3.95" ry="3.95" fill="#ffffff" data-fill-palette-color="accent"></rect><path d="M40.48 24.45a1.82 1.82 0 1 1-1.82 1.82A1.86 1.86 0 0 1 40.48 24.45Zm0 5.58A3.7 3.7 0 0 0 44 27.33h6.26c0.69 0 1.31 0 1.57 0.25s0.31 0.44 0.31 1.25c0 1.13 0 2.63-0.06 3.82a2.76 2.76 0 1 0 3.76 2.57 2.76 2.76 0 0 0-1.94-2.63c0-1.19 0.06-2.63 0.06-3.76a3.32 3.32 0 0 0-0.82-2.57 3.69 3.69 0 0 0-2.88-0.75h-6.2A3.71 3.71 0 1 0 40.48 30Z" fill="#ffffff" data-fill-palette-color="accent"></path><path d="M35 76.18a1.82 1.82 0 1 1-1.82-1.82A1.78 1.78 0 0 1 35 76.18ZM45.8 66A2.71 2.71 0 0 0 43.3 67.6h-7c-1.31 0-4.07 0-4.07 3.7v1.25a3.68 3.68 0 0 0 0.88 7.27 3.74 3.74 0 0 0 3.7-3.7 3.7 3.7 0 0 0-2.69-3.57c0-0.37-0.06-0.82-0.06-1.25 0-1.69 0.56-1.82 2.19-1.82h6.83a2.69 2.69 0 0 0 2.63 2 2.78 2.78 0 0 0 2.76-2.76A2.69 2.69 0 0 0 45.8 66Z" fill="#ffffff" data-fill-palette-color="accent"></path><path d="M62.71 78a1.82 1.82 0 0 1-1.82-1.82 1.87 1.87 0 0 1 1.82-1.88 1.82 1.82 0 0 1 1.82 1.82A1.87 1.87 0 0 1 62.71 78Zm0.88-5.45V71.29c0-3.7-2.76-3.7-4.07-3.7H55.7A2.67 2.67 0 0 0 53.2 66a2.76 2.76 0 1 0 2.63 3.51h3.7c1.63 0 2.19 0.12 2.19 1.82a8.09 8.09 0 0 1-0.06 1.25 3.7 3.7 0 1 0 4.7 3.57A3.57 3.57 0 0 0 63.59 72.55Z" fill="#ffffff" data-fill-palette-color="accent"></path></g></svg></g><g transform="matrix(1,0,0,1,278.8697982187159,45.25989999999999)"><svg width="242.45000000000002" viewBox="4 -40.150001525878906 242.42999267578125 40.55000305175781" height="40.550000000000004" data-palette-color="#ffffff"><path d="M25.15-2.1L25.15-37.55Q25.15-39.95 28.1-39.95L28.1-39.95Q31.1-39.95 31.1-37.55L31.1-37.55 31.1-2.1Q31.1 0.3 28.1 0.3L28.1 0.3Q25.15 0.3 25.15-2.1L25.15-2.1ZM9.95-37.55L9.95-2.1Q9.95 0.3 6.95 0.3L6.95 0.3Q4 0.3 4-2.1L4-2.1 4-37.55Q4-39.95 6.95-39.95L6.95-39.95Q9.95-39.95 9.95-37.55L9.95-37.55ZM21.65-20.65L21.65-20.65Q21.65-18.9 20.45-17.7 19.25-16.5 17.5-16.5L17.5-16.5Q15.8-16.5 14.6-17.7 13.4-18.9 13.4-20.65L13.4-20.65Q13.4-22.4 14.6-23.6 15.8-24.8 17.5-24.8L17.5-24.8Q19.25-24.8 20.45-23.6 21.65-22.4 21.65-20.65ZM62-28L62-7.95Q62-5.95 61.3-4.4 60.6-2.85 59.3-1.9L59.3-1.9 59.35-1.9Q58.1-1.05 56.7-0.53 55.3 0 54 0L54 0 45.95 0Q44.7 0 43.27-0.53 41.85-1.05 40.6-1.9L40.6-1.9 40.65-1.9Q39.35-2.85 38.65-4.4 37.95-5.95 37.95-7.95L37.95-7.95 37.95-28Q37.95-30.4 40.7-30.4L40.7-30.4Q43.45-30.4 43.45-28L43.45-28 43.45-8.35Q43.45-6.95 44.15-5.9L44.15-5.9Q44.8-4.7 46.85-4.7L46.85-4.7 53.1-4.7Q55.1-4.7 55.75-5.9L55.75-5.9 55.7-5.85Q56.5-7.05 56.5-8.35L56.5-8.35 56.5-28Q56.5-30.4 59.25-30.4L59.25-30.4Q62-30.4 62-28L62-28ZM73.75-21.75L73.75-2.1Q73.75 0.3 71 0.3L71 0.3Q68.25 0.3 68.25-2.1L68.25-2.1 68.25-22.2Q68.25-24.25 68.9-25.75 69.55-27.25 70.95-28.2L70.95-28.2Q73.6-30.1 76.25-30.1L76.25-30.1 84.3-30.1Q86.85-30.1 89.6-28.2L89.6-28.2Q92.3-26.3 92.3-22.2L92.3-22.2 92.3-2.1Q92.3 0.3 89.55 0.3L89.55 0.3Q86.8 0.3 86.8-2.1L86.8-2.1 86.8-21.75Q86.8-23.05 86-24.25L86-24.25 86.05-24.2Q85.4-25.4 83.4-25.4L83.4-25.4 77.15-25.4Q75.1-25.4 74.45-24.2L74.45-24.2Q73.75-23.15 73.75-21.75L73.75-21.75ZM109.44-25.4L105.29-25.4 105.29-7.2Q105.29-5.9 105.84-5.2 106.39-4.5 108.19-4.5L108.19-4.5 109.49-4.5Q111.44-4.5 111.34-2.2L111.34-2.2Q111.34 0.15 109.49 0.15L109.49 0.15 107.84 0.15Q106.24 0.15 104.84-0.28 103.44-0.7 102.14-1.5L102.14-1.5 102.14-1.45Q99.69-3.05 99.69-7.15L99.69-7.15 99.69-25.4 97.74-25.4Q95.94-25.4 95.84-27.75L95.84-27.75Q95.84-30.1 97.74-30.1L97.74-30.1 99.69-30.1 99.69-35.45Q99.69-37.85 102.54-37.85L102.54-37.85Q105.29-37.85 105.29-35.45L105.29-35.45 105.29-30.1 109.44-30.1Q111.39-30.1 111.29-27.75L111.29-27.75Q111.29-25.4 109.44-25.4L109.44-25.4ZM121.19-22.15L121.19-8Q121.19-6.8 121.97-5.75 122.74-4.7 124.59-4.7L124.59-4.7 130.84-4.7Q132.69-4.7 133.47-5.63 134.24-6.55 134.24-7.75L134.24-7.75 134.24-8.3Q134.24-10.65 136.99-10.65L136.99-10.65Q139.74-10.65 139.74-8.3L139.74-8.3 139.74-7.7Q139.74-5.6 139.07-4.25 138.39-2.9 137.04-1.9L137.04-1.9Q134.39 0 131.74 0L131.74 0 123.34 0Q120.69 0 118.19-1.9L118.19-1.9Q116.99-2.9 116.34-4.42 115.69-5.95 115.69-7.95L115.69-7.95 115.69-22.2Q115.69-26.25 118.19-28.2L118.19-28.2Q119.44-29.1 120.77-29.63 122.09-30.15 123.34-30.15L123.34-30.15 131.74-30.15Q132.94-30.15 134.39-29.68 135.84-29.2 137.09-28.4L137.09-28.4Q138.29-27.55 139.02-26.05 139.74-24.55 139.74-22.5L139.74-22.5 139.74-15.75Q139.74-14.6 139.07-13.7 138.39-12.8 136.59-12.8L136.59-12.8 125.79-12.8Q123.99-12.8 123.89-15.15L123.89-15.15Q123.89-17.5 125.79-17.5L125.79-17.5 134.29-17.5 134.24-22.15Q134.24-23.4 133.47-24.43 132.69-25.45 130.84-25.45L130.84-25.45 124.59-25.45Q122.74-25.45 121.97-24.43 121.19-23.4 121.19-22.15L121.19-22.15ZM151.49-22.75L151.49-2.1Q151.49 0.3 148.74 0.3L148.74 0.3Q145.89 0.3 145.89-2.1L145.89-2.1 145.89-22.8Q145.89-26.9 148.34-28.5L148.34-28.5Q150.79-30.1 153.99-30.1L153.99-30.1 159.69-30.1Q161.54-30.1 161.54-27.75L161.54-27.75Q161.64-25.4 159.69-25.4L159.69-25.4 154.39-25.4Q152.59-25.4 152.04-24.7 151.49-24 151.49-22.75L151.49-22.75ZM203.83 0.05L184.38 0.05Q182.53 0.05 181.88-0.9 181.23-1.85 181.23-3L181.23-3 181.23-37.55Q181.23-39.95 184.13-39.95L184.13-39.95Q187.13-39.95 187.13-37.55L187.13-37.55 187.13-5 203.83-5Q205.63-5 205.63-2.55L205.63-2.55Q205.73 0.05 203.83 0.05L203.83 0.05ZM215.48-37.8L215.48-1.95Q215.48 0.4 212.73 0.4L212.73 0.4Q209.93 0.4 209.93-1.95L209.93-1.95 209.93-37.8Q209.93-40.15 212.73-40.15L212.73-40.15Q215.48-40.15 215.48-37.8L215.48-37.8ZM246.43-10.3L246.43-7.95Q246.43-3.85 243.73-1.9L243.73-1.9Q241.08 0 238.43 0L238.43 0 230.03 0Q227.38 0 224.88-1.9L224.88-1.9Q223.68-2.9 223.03-4.42 222.38-5.95 222.38-7.95L222.38-7.95 222.38-22.2Q222.38-26.25 224.88-28.2L224.88-28.2Q226.13-29.1 227.45-29.63 228.78-30.15 230.03-30.15L230.03-30.15 238.43-30.15Q239.63-30.15 241.08-29.68 242.53-29.2 243.78-28.4L243.78-28.4Q244.98-27.55 245.7-26.05 246.43-24.55 246.43-22.5L246.43-22.5 246.43-20Q246.43-17.6 243.68-17.6L243.68-17.6Q240.93-17.6 240.93-20L240.93-20 240.93-22.15Q240.93-23.4 240.15-24.43 239.38-25.45 237.53-25.45L237.53-25.45 231.28-25.45Q229.43-25.45 228.65-24.43 227.88-23.4 227.88-22.15L227.88-22.15 227.88-8Q227.88-6.8 228.65-5.75 229.43-4.7 231.28-4.7L231.28-4.7 237.53-4.7Q239.38-4.7 240.15-5.75 240.93-6.8 240.93-8L240.93-8 240.93-10.3Q240.93-12.65 243.68-12.65L243.68-12.65Q246.43-12.65 246.43-10.3L246.43-10.3Z" opacity="1" transform="matrix(1,0,0,1,0,0)" fill="#ffffff" class="undefined-p-1"></path></svg></g></svg></g></svg></g></svg></g></svg></g><g></g></svg></g></svg></g></svg></g><defs></defs></svg><rect width="448" height="360" fill="none" stroke="none" visibility="hidden"></rect></g></svg></g></svg>